<svg xmlns="http://www.w3.org/2000/svg" viewBox="0 0 307.4 39.99"><defs><style>.a{isolation:isolate;}.b{fill:#53afbe;}.c{fill:#feb449;}.d{fill:#327984;}</style></defs><g class="a"><path class="b" d="M55.3,28.1a.91.91,0,0,1-.4.8,1.69,1.69,0,0,1-1,.3,1.85,1.85,0,0,1-.7-.2,1.21,1.21,0,0,1-.5-.5l-2.9-4.4a3,3,0,0,0-.9-1,2.5,2.5,0,0,0-1.3-.3H45.4v4.9a1.16,1.16,0,0,1-.4,1,1.78,1.78,0,0,1-1,.4,1.16,1.16,0,0,1-1-.4,1.28,1.28,0,0,1-.4-1V14.8a1.16,1.16,0,0,1,.4-1,1.53,1.53,0,0,1,1-.4h5.5a5.8,5.8,0,0,1,4,1.2A4.29,4.29,0,0,1,54.9,18a4.36,4.36,0,0,1-1,3A4.53,4.53,0,0,1,51,22.5a3.7,3.7,0,0,1,1.1.5,5.31,5.31,0,0,1,.9,1.1l2,3.1A2.3,2.3,0,0,1,55.3,28.1Zm-3.8-8a2.23,2.23,0,0,0,.7-1.9,2.23,2.23,0,0,0-.7-1.9,3.84,3.84,0,0,0-2.4-.6H45.4v4.9h3.7A3.32,3.32,0,0,0,51.5,20.1Z"/><path class="b" d="M66.8,26.5c.2.2.2.4.2.8s-.3.8-.8,1.1a8.65,8.65,0,0,1-1.7.7,5.66,5.66,0,0,1-1.8.3,5.59,5.59,0,0,1-4.1-1.5,5.59,5.59,0,0,1-1.5-4.1,5.43,5.43,0,0,1,.7-2.9,4.59,4.59,0,0,1,1.9-2,5,5,0,0,1,2.7-.7,4.87,4.87,0,0,1,2.5.6,4.24,4.24,0,0,1,1.7,1.8,6.09,6.09,0,0,1,.6,2.8c0,.6-.3.9-.8.9H59.9a3.22,3.22,0,0,0,.9,2.2,2.82,2.82,0,0,0,2.1.7,3.73,3.73,0,0,0,1.2-.2,6.12,6.12,0,0,0,1.2-.5,3.38,3.38,0,0,1,1-.4C66.4,26.2,66.6,26.3,66.8,26.5Zm-6.2-5.7a3.67,3.67,0,0,0-.8,2h5a2.44,2.44,0,0,0-.7-2,2.06,2.06,0,0,0-1.7-.7A2.14,2.14,0,0,0,60.6,20.8Z"/><path class="b" d="M77.2,18.4a1.42,1.42,0,0,1,.6-.2,1.61,1.61,0,0,1,.9.3.91.91,0,0,1,.4.8.75.75,0,0,1-.1.5l-4.1,8.5a.9.9,0,0,1-.6.6,1.88,1.88,0,0,1-.8.2,2.35,2.35,0,0,1-.8-.2,1.17,1.17,0,0,1-.6-.6L68,19.8a.75.75,0,0,1-.1-.5,1.22,1.22,0,0,1,.4-.9,1.28,1.28,0,0,1,1-.4,1.41,1.41,0,0,1,1.2.8l3.1,6.8,3.1-6.8A2.18,2.18,0,0,1,77.2,18.4Z"/><path class="b" d="M89.7,26.5c.2.2.2.4.2.8s-.3.8-.8,1.1a8.65,8.65,0,0,1-1.7.7,5.66,5.66,0,0,1-1.8.3,5.59,5.59,0,0,1-4.1-1.5A5.59,5.59,0,0,1,80,23.8a5.43,5.43,0,0,1,.7-2.9,4.59,4.59,0,0,1,1.9-2,5,5,0,0,1,2.7-.7,4.87,4.87,0,0,1,2.5.6,4.24,4.24,0,0,1,1.7,1.8,6.09,6.09,0,0,1,.6,2.8c0,.6-.3.9-.8.9H82.8a3.22,3.22,0,0,0,.9,2.2,2.82,2.82,0,0,0,2.1.7A3.73,3.73,0,0,0,87,27a6.12,6.12,0,0,0,1.2-.5,3.38,3.38,0,0,1,1-.4C89.3,26.2,89.5,26.3,89.7,26.5Zm-6.2-5.7a3.67,3.67,0,0,0-.8,2h5a2.44,2.44,0,0,0-.7-2,2.06,2.06,0,0,0-1.7-.7A2.14,2.14,0,0,0,83.5,20.8Z"/><path class="b" d="M99.2,18.4a1.5,1.5,0,0,1,0,1.8,1.88,1.88,0,0,1-1,.4l-.7.1a2.64,2.64,0,0,0-1.9.9,2.88,2.88,0,0,0-.6,1.9v4.6a1.16,1.16,0,0,1-.4,1,1.82,1.82,0,0,1-2,0,1.16,1.16,0,0,1-.4-1V19.6a1,1,0,0,1,.4-.9,1.69,1.69,0,0,1,1-.3,1.22,1.22,0,0,1,.9.3,1.27,1.27,0,0,1,.4.9v.9A4.43,4.43,0,0,1,96.1,19a3.85,3.85,0,0,1,1.8-.6h.3A.76.76,0,0,1,99.2,18.4Z"/><path class="b" d="M100.6,28.4a1.31,1.31,0,0,1-.7-1.2,1.45,1.45,0,0,1,.2-.7.86.86,0,0,1,.6-.3,1.85,1.85,0,0,1,1,.4,11.22,11.22,0,0,0,1.3.5,6.05,6.05,0,0,0,1.5.2,2.65,2.65,0,0,0,1.4-.3,1.05,1.05,0,0,0,.5-.9,1.42,1.42,0,0,0-.2-.6,2.15,2.15,0,0,0-.7-.4,12.26,12.26,0,0,0-1.6-.4,6.77,6.77,0,0,1-2.8-1.1,2.44,2.44,0,0,1-.8-2,2.72,2.72,0,0,1,.6-1.7,4,4,0,0,1,1.6-1.2,5.56,5.56,0,0,1,2.3-.4,11,11,0,0,1,1.8.2,5.23,5.23,0,0,1,1.5.7,1.31,1.31,0,0,1,.7,1.2,1.45,1.45,0,0,1-.2.7.86.86,0,0,1-.6.3.9.9,0,0,1-.5-.1,3.33,3.33,0,0,0-.6-.3,9.74,9.74,0,0,0-1.1-.5,3.59,3.59,0,0,0-1.1-.2,2.5,2.5,0,0,0-1.3.3,1.05,1.05,0,0,0-.5.9.89.89,0,0,0,.5.8,5.93,5.93,0,0,0,1.9.6,7.88,7.88,0,0,1,2.3.7,2.47,2.47,0,0,1,1.2,1,3.31,3.31,0,0,1,.4,1.5,2.85,2.85,0,0,1-1.2,2.4,5.39,5.39,0,0,1-3.3.9A8.8,8.8,0,0,1,100.6,28.4Z"/><path class="b" d="M120.4,26.5c.2.2.2.4.2.8s-.3.8-.8,1.1a8.65,8.65,0,0,1-1.7.7,5.66,5.66,0,0,1-1.8.3,5.59,5.59,0,0,1-4.1-1.5,5.59,5.59,0,0,1-1.5-4.1,5.43,5.43,0,0,1,.7-2.9,4.59,4.59,0,0,1,1.9-2,5,5,0,0,1,2.7-.7,4.87,4.87,0,0,1,2.5.6,4.24,4.24,0,0,1,1.7,1.8,6.09,6.09,0,0,1,.6,2.8c0,.6-.3.9-.8.9h-6.5a3.22,3.22,0,0,0,.9,2.2,2.82,2.82,0,0,0,2.1.7,3.73,3.73,0,0,0,1.2-.2,6.12,6.12,0,0,0,1.2-.5,3.38,3.38,0,0,1,1-.4C120,26.2,120.2,26.3,120.4,26.5Zm-6.2-5.7a3.67,3.67,0,0,0-.8,2h5a2.44,2.44,0,0,0-.7-2,2.06,2.06,0,0,0-1.7-.7A2.14,2.14,0,0,0,114.2,20.8Z"/><path class="b" d="M123.6,28.9a1.28,1.28,0,0,1-.4-1V15a1.16,1.16,0,0,1,.4-1,1.53,1.53,0,0,1,1-.4H130a5.87,5.87,0,0,1,3.9,1.2,4.51,4.51,0,0,1,1.4,3.5,4.51,4.51,0,0,1-1.4,3.5,5.71,5.71,0,0,1-3.9,1.3h-3.9v4.7a1.16,1.16,0,0,1-.4,1,1.28,1.28,0,0,1-1,.4A1.23,1.23,0,0,1,123.6,28.9Zm6-8c2,0,2.9-.9,2.9-2.6s-1-2.6-2.9-2.6H126v5.1h3.6Z"/><path class="b" d="M147.5,22.5v5.4a1.28,1.28,0,0,1-.4,1,1.53,1.53,0,0,1-1,.4,1.16,1.16,0,0,1-1-.4,1.78,1.78,0,0,1-.4-1V22.5a2.65,2.65,0,0,0-.5-1.7,1.72,1.72,0,0,0-1.5-.5,2.49,2.49,0,0,0-1.9.7,2.72,2.72,0,0,0-.7,2v4.9a1.28,1.28,0,0,1-.4,1,1.53,1.53,0,0,1-1,.4,1.16,1.16,0,0,1-1-.4,1.78,1.78,0,0,1-.4-1V14.7a1,1,0,0,1,.4-.9,1.78,1.78,0,0,1,1-.4,1.69,1.69,0,0,1,1,.3,1.27,1.27,0,0,1,.4.9v5.1a3.74,3.74,0,0,1,1.5-1.3,4.65,4.65,0,0,1,2.1-.5C146.3,18.1,147.5,19.6,147.5,22.5Z"/><path class="b" d="M152.3,28.6a4.59,4.59,0,0,1-1.9-2,5.79,5.79,0,0,1-.7-3,6,6,0,0,1,.7-3,5,5,0,0,1,1.9-1.9,6.53,6.53,0,0,1,2.9-.7,5.43,5.43,0,0,1,2.9.7,5,5,0,0,1,1.9,1.9,6.64,6.64,0,0,1,.7,3,6,6,0,0,1-.7,3,4.59,4.59,0,0,1-1.9,2,5.43,5.43,0,0,1-2.9.7A5.66,5.66,0,0,1,152.3,28.6Zm4.9-2.3a4,4,0,0,0,.7-2.6,4,4,0,0,0-.7-2.6,2.38,2.38,0,0,0-2-.9,2.26,2.26,0,0,0-2,.9,4,4,0,0,0-.7,2.6,4,4,0,0,0,.7,2.6,2.38,2.38,0,0,0,2,.9A2.26,2.26,0,0,0,157.2,26.3Z"/><path class="b" d="M172.1,19.2a5,5,0,0,1,.9,3.3v5.4a1.37,1.37,0,0,1-1.4,1.4,1.16,1.16,0,0,1-1-.4,1.53,1.53,0,0,1-.4-1V22.6a3,3,0,0,0-.5-1.8,1.75,1.75,0,0,0-1.5-.6,2.49,2.49,0,0,0-1.9.7,2.72,2.72,0,0,0-.7,2v4.9a1.37,1.37,0,0,1-1.4,1.4,1.16,1.16,0,0,1-1-.4,1.78,1.78,0,0,1-.4-1V19.3a1,1,0,0,1,.4-.9,1.53,1.53,0,0,1,1-.4,1.22,1.22,0,0,1,.9.3,1.27,1.27,0,0,1,.4.9v.6a4,4,0,0,1,1.5-1.4,4.31,4.31,0,0,1,5.1.8Z"/><path class="b" d="M185,26.5c.2.2.2.4.2.8s-.3.8-.8,1.1a8.65,8.65,0,0,1-1.7.7,5.66,5.66,0,0,1-1.8.3,5.59,5.59,0,0,1-4.1-1.5,5.59,5.59,0,0,1-1.5-4.1,5.43,5.43,0,0,1,.7-2.9,4.59,4.59,0,0,1,1.9-2,5,5,0,0,1,2.7-.7,4.87,4.87,0,0,1,2.5.6,4.24,4.24,0,0,1,1.7,1.8,6.09,6.09,0,0,1,.6,2.8c0,.6-.3.9-.8.9h-6.5a3.22,3.22,0,0,0,.9,2.2,2.82,2.82,0,0,0,2.1.7,3.73,3.73,0,0,0,1.2-.2,6.12,6.12,0,0,0,1.2-.5,3.38,3.38,0,0,1,1-.4C184.6,26.2,184.8,26.3,185,26.5Zm-6.2-5.7a3.67,3.67,0,0,0-.8,2h5a2.44,2.44,0,0,0-.7-2,2.06,2.06,0,0,0-1.7-.7A2.14,2.14,0,0,0,178.8,20.8Z"/><path class="b" d="M188.1,28.8a1.53,1.53,0,0,1-.4-1V14.9a1.16,1.16,0,0,1,.4-1,1.28,1.28,0,0,1,1-.4,1.16,1.16,0,0,1,1,.4,1.28,1.28,0,0,1,.4,1V26.8h6.2c.9,0,1.3.4,1.3,1.2s-.4,1.2-1.3,1.2H189A2.47,2.47,0,0,1,188.1,28.8Z"/><path class="b" d="M201.7,28.6a4.59,4.59,0,0,1-1.9-2,7,7,0,0,1-.7-3,6,6,0,0,1,.7-3,5,5,0,0,1,1.9-1.9,6.36,6.36,0,0,1,5.8,0,5,5,0,0,1,1.9,1.9,6.64,6.64,0,0,1,.7,3,6,6,0,0,1-.7,3,5.24,5.24,0,0,1-1.9,2,6.36,6.36,0,0,1-5.8,0Zm4.9-2.3a4,4,0,0,0,.7-2.6,4,4,0,0,0-.7-2.6,2.38,2.38,0,0,0-2-.9,2.26,2.26,0,0,0-2,.9,4,4,0,0,0-.7,2.6,4,4,0,0,0,.7,2.6,2.38,2.38,0,0,0,2,.9A2.52,2.52,0,0,0,206.6,26.3Z"/><path class="b" d="M214.3,28.6a4.59,4.59,0,0,1-1.9-2,5.79,5.79,0,0,1-.7-3,6,6,0,0,1,.7-3,5,5,0,0,1,1.9-1.9,6.36,6.36,0,0,1,5.8,0,5,5,0,0,1,1.9,1.9,6.64,6.64,0,0,1,.7,3,6,6,0,0,1-.7,3,4.59,4.59,0,0,1-1.9,2,5.43,5.43,0,0,1-2.9.7A5.66,5.66,0,0,1,214.3,28.6Zm4.9-2.3a4,4,0,0,0,.7-2.6,4,4,0,0,0-.7-2.6,2.38,2.38,0,0,0-2-.9,2.26,2.26,0,0,0-2,.9,4,4,0,0,0-.7,2.6,4,4,0,0,0,.7,2.6,2.38,2.38,0,0,0,2,.9A2.26,2.26,0,0,0,219.2,26.3Z"/><path class="b" d="M235,27.9a1.22,1.22,0,0,1-.4.9.91.91,0,0,1-.8.4,1.22,1.22,0,0,1-.9-.4l-5.1-4.7v3.8a1.28,1.28,0,0,1-.4,1,1.82,1.82,0,0,1-2,0,1.05,1.05,0,0,1-.4-1V14.8a1.28,1.28,0,0,1,.4-1,1.21,1.21,0,0,1,1-.3,1.69,1.69,0,0,1,1,.3,1.05,1.05,0,0,1,.4,1v8.3l4.7-4.5a1.21,1.21,0,0,1,1.8,0,1.27,1.27,0,0,1,.4.9,1.22,1.22,0,0,1-.4.9l-3.5,3.2,3.8,3.4A1.8,1.8,0,0,1,235,27.9Z"/><path class="b" d="M246.3,18.5a1.27,1.27,0,0,1,.4.9v8.5a1,1,0,0,1-.4.9,1.78,1.78,0,0,1-1,.4,1.22,1.22,0,0,1-.9-.3,1.27,1.27,0,0,1-.4-.9v-.6a3.76,3.76,0,0,1-1.4,1.4,3.2,3.2,0,0,1-1.9.5c-2.6,0-4-1.5-4-4.4V19.5a1,1,0,0,1,.4-.9,1.53,1.53,0,0,1,1-.4,1.16,1.16,0,0,1,1,.4,1.27,1.27,0,0,1,.4.9v5.4a2.65,2.65,0,0,0,.5,1.7,1.72,1.72,0,0,0,1.5.5,2.2,2.2,0,0,0,1.8-.8,2.72,2.72,0,0,0,.7-2V19.4a1,1,0,0,1,.4-.9,1.78,1.78,0,0,1,1-.4A3.55,3.55,0,0,1,246.3,18.5Z"/><path class="b" d="M258.2,18.8a4.8,4.8,0,0,1,1.7,2,7,7,0,0,1,.6,3,6.53,6.53,0,0,1-.6,2.9,4.51,4.51,0,0,1-1.7,1.9,4.09,4.09,0,0,1-2.5.7,4.23,4.23,0,0,1-2-.5,3.53,3.53,0,0,1-1.4-1.3V32a1,1,0,0,1-.4.9,1.49,1.49,0,0,1-1,.3,1.28,1.28,0,0,1-1-.4,1,1,0,0,1-.4-.9V19.4a1,1,0,0,1,.4-.9,1.78,1.78,0,0,1,1-.4,1.28,1.28,0,0,1,1,.4,1.27,1.27,0,0,1,.4.9v.5a3.16,3.16,0,0,1,1.4-1.4,4.65,4.65,0,0,1,2.1-.5A5.69,5.69,0,0,1,258.2,18.8ZM257,26.3a3.73,3.73,0,0,0,.7-2.5,4,4,0,0,0-.7-2.6,2.52,2.52,0,0,0-2-.9,2.26,2.26,0,0,0-2,.9,4,4,0,0,0-.7,2.6,4,4,0,0,0,.7,2.6,2.52,2.52,0,0,0,2,.9A3,3,0,0,0,257,26.3Z"/><path class="b" d="M262.6,28.8a1.69,1.69,0,1,1,1.2.5A1.66,1.66,0,0,1,262.6,28.8Z"/><path class="b" d="M269.5,28.6a5.75,5.75,0,0,1-1.9-1.9,6.53,6.53,0,0,1-.7-2.9,6,6,0,0,1,.7-3,5.24,5.24,0,0,1,1.9-2,5.43,5.43,0,0,1,2.9-.7,9.85,9.85,0,0,1,1.7.2,5.23,5.23,0,0,1,1.5.7,1.31,1.31,0,0,1,.7,1.2,1.88,1.88,0,0,1-.2.8.86.86,0,0,1-.6.3.9.9,0,0,1-.5-.1,2.19,2.19,0,0,1-.5-.3c-.3-.2-.6-.3-.9-.5a3,3,0,0,0-1-.2,2.58,2.58,0,0,0-2.1.9,3.85,3.85,0,0,0-.7,2.6,3.73,3.73,0,0,0,.7,2.5,2.58,2.58,0,0,0,2.1.9,3,3,0,0,0,1-.2,9.25,9.25,0,0,0,1-.5l.6-.3a.9.9,0,0,1,.5-.1.86.86,0,0,1,.6.3,1.3,1.3,0,0,1,0,1.4c-.1.2-.3.3-.5.5a7.74,7.74,0,0,1-1.6.7,5.66,5.66,0,0,1-1.8.3A4.77,4.77,0,0,1,269.5,28.6Z"/><path class="b" d="M280.3,28.6a4.59,4.59,0,0,1-1.9-2,7,7,0,0,1-.7-3,6,6,0,0,1,.7-3,5,5,0,0,1,1.9-1.9,6.36,6.36,0,0,1,5.8,0,5,5,0,0,1,1.9,1.9,6.64,6.64,0,0,1,.7,3,6,6,0,0,1-.7,3,5.24,5.24,0,0,1-1.9,2,5.43,5.43,0,0,1-2.9.7A5.66,5.66,0,0,1,280.3,28.6Zm5-2.3a4,4,0,0,0,.7-2.6,4,4,0,0,0-.7-2.6,2.38,2.38,0,0,0-2-.9,2.26,2.26,0,0,0-2,.9,4,4,0,0,0-.7,2.6,4,4,0,0,0,.7,2.6,2.38,2.38,0,0,0,2,.9A2.52,2.52,0,0,0,285.3,26.3Z"/><path class="b" d="M306.5,19.2a5.13,5.13,0,0,1,.9,3.4V28a1.16,1.16,0,0,1-.4,1,1.82,1.82,0,0,1-2,0,1.16,1.16,0,0,1-.4-1V22.6a2.5,2.5,0,0,0-.4-1.7,1.73,1.73,0,0,0-1.3-.5,2.06,2.06,0,0,0-1.7.7,3.17,3.17,0,0,0-.6,2V28a1.16,1.16,0,0,1-.4,1,1.82,1.82,0,0,1-2,0,1.16,1.16,0,0,1-.4-1V22.6a2.5,2.5,0,0,0-.4-1.7,1.73,1.73,0,0,0-1.3-.5,2.06,2.06,0,0,0-1.7.7,3.17,3.17,0,0,0-.6,2V28a1.16,1.16,0,0,1-.4,1,1.82,1.82,0,0,1-2,0,1.16,1.16,0,0,1-.4-1V19.5a1,1,0,0,1,.4-.9,1.69,1.69,0,0,1,1-.3,1.22,1.22,0,0,1,.9.3,1.27,1.27,0,0,1,.4.9V20a3,3,0,0,1,1.4-1.3,4.14,4.14,0,0,1,1.9-.5,3.13,3.13,0,0,1,3.2,2,4,4,0,0,1,1.4-1.5,3.7,3.7,0,0,1,2.1-.6A3.76,3.76,0,0,1,306.5,19.2Z"/></g><path class="c" d="M10.6,5.7a15.4,15.4,0,0,0-5.7,5.9,1.21,1.21,0,0,0,.2,1.5l1.7,1.7A1.31,1.31,0,0,1,7.1,16a20.48,20.48,0,0,0-.7,4.2,1,1,0,0,1-1,1H1a1.17,1.17,0,0,1-1-1C0,7.7,7.1.5,19.3,0a1.07,1.07,0,0,1,1,1V6a.6.6,0,0,1-.1.4,1.17,1.17,0,0,1-1.1.8,16.89,16.89,0,0,0-3.9.8,1.59,1.59,0,0,1-1.3-.3L12.3,6.1A1.32,1.32,0,0,0,10.6,5.7Z"/><path class="d" d="M10.6,21.68v13.7A4.69,4.69,0,0,0,15.4,40h0a4.63,4.63,0,0,0,4.8-4.6v-3.1A10.64,10.64,0,0,1,10.6,21.68Z"/><path class="b" d="M32.9,32.48,29.7,28a10.58,10.58,0,1,0-17-12.6,10.17,10.17,0,0,0-2.1,6.3h0a10.55,10.55,0,0,0,9.6,10.5h.7L25,38a4.52,4.52,0,0,0,6.3,1.1l.4-.3A4.51,4.51,0,0,0,32.9,32.48Zm-7-9.8a4.88,4.88,0,0,1-5.7,3.8,4.94,4.94,0,0,1-3.8-3.8,2.77,2.77,0,0,1-.1-.9,4.8,4.8,0,1,1,9.6,0,1.35,1.35,0,0,1,0,.9Z"/></svg>